#!OML:ASF F:\VICON\USERDATA\INSTALL\rory3\rory3.ASF
:FULLY-SPECIFIED
:DEGREES
622
root 0.292976 17.8121 0.975762 -2.56088 1.76397 0.578416
lowerback 9.76773 -1.98573 -2.23921
upperback 0.173814 -2.77913 2.15768
thorax -5.08231 -1.29243 3.90353
lowerneck -16.3307 -2.64426 -2.22781
upperneck 22.1218 -2.89519 -0.869721
head 9.73088 -1.63682 -0.310627
rclavicle -6.55989e-015 7.15625e-015
rhumerus -37.8631 -33.4159 -67.1032
rradius 18.1605
rwrist 12.9808
rhand -19.0348 22.2446
rfingers 7.12502
rthumb 7.27154 -7.61045
lclavicle -6.55989e-015 7.15625e-015
lhumerus -22.3944 -0.0627112 80.9789
lradius 33.053
lwrist 7.7865
lhand -31.486 17.7457
lfingers 7.12502
lthumb -4.75241 47.6724
rfemur -27.2632 6.40105 20.4452
rtibia 26.622
rfoot -5.41606 -7.32273
rtoes -4.74118
lfemur 17.0031 -6.88754 -25.8451
ltibia 24.7196
lfoot -9.17158 -5.25657
ltoes -18.4106
623
root 0.276552 17.8277 1.2018 -2.70284 1.53068 0.546121
lowerback 9.67254 -1.93878 -2.15865
upperback 0.132716 -2.7073 2.14
thorax -5.08239 -1.25866 3.82662
lowerneck -16.179 -2.5846 -2.00148
upperneck 22.2536 -2.79574 -1.2006
head 9.73932 -1.61098 -0.44936
rclavicle 1.85615e-014 1.43125e-014
rhumerus -38.5017 -34.0863 -66.2631
rradius 17.8622
rwrist 13.6062
rhand -18.7674 22.6528
rfingers 7.12502
rthumb 7.52965 -7.19314
lclavicle 1.85615e-014 1.43125e-014
lhumerus -22.8659 0.183583 81.0335
lradius 32.9214
lwrist 7.88345
lhand -31.806 18.1367
lfingers 7.12502
lthumb -5.06138 48.0563
rfemur -26.7486 6.30824 20.686
rtibia 27.1125
rfoot -4.17624 -5.90728
rtoes -4.56905
lfemur 16.6157 -6.64604 -25.8119
ltibia 26.9817
lfoot -7.60034 -5.94633
ltoes -20.6145
624
root 0.256929 17.8429 1.42671 -2.70353 1.3306 0.292988
lowerback 9.32121 -1.87383 -1.81536
upperback 0.165562 -2.57897 2.15469
thorax -4.87515 -1.20825 3.61349
lowerneck -16.3506 -2.58123 -1.87537
upperneck 22.5574 -2.77823 -1.36614
head 9.87462 -1.61277 -0.532036
rclavicle 1.40392e-014 4.77083e-015
rhumerus -39.1843 -35.522 -65.06
rradius 17.482
rwrist 15.1432
rhand -18.654 23.3788
rfingers 7.12502
rthumb 7.6391 -6.4632
lclavicle 1.40392e-014 4.77083e-015
lhumerus -23.2825 0.327109 81.143
lradius 33.0254
lwrist 7.79574
lhand -31.8071 20.0955
lfingers 7.12502
lthumb -5.06245 50.015
rfemur -26.384 6.00445 21.2518
rtibia 27.7693
rfoot -3.44586 -4.66178
rtoes -2.17723
lfemur 15.8988 -6.27125 -25.3219
ltibia 29.2668
lfoot -5.36622 -7.09254
ltoes -20.5491
625
root 0.23227 17.8583 1.63541 -2.73945 1.28581 0.135
lowerback 9.16324 -1.83567 -1.64016
upperback 0.20248 -2.50861 2.15342
thorax -4.7605 -1.18019 3.49584
lowerneck -16.1207 -2.65427 -1.91654
upperneck 22.3634 -2.89964 -1.27279
head 9.76483 -1.66078 -0.502573
rclavicle 9.88954e-015 1.43125e-014
rhumerus -39.5866 -37.0954 -64.0448
rradius 17.014
rwrist 16.6419
rhand -18.575 23.4859
rfingers 7.12502
rthumb 7.71538 -6.35337
lclavicle 9.88954e-015 1.43125e-014
lhumerus -23.6058 0.657008 81.1717
lradius 32.8287
lwrist 7.77484
lhand -31.491 19.4685
lfingers 7.12502
lthumb -4.75723 49.3951
rfemur -26.0219 5.66774 21.7241
rtibia 28.4941
rfoot -3.82835 -4.16
rtoes -0.296066
lfemur 14.9705 -5.74608 -24.7713
ltibia 31.5407
lfoot -3.20174 -8.64834
ltoes -22.3292
626
root 0.204858 17.8805 1.84788 -2.84726 1.20114 -0.0666247
lowerback 9.25099 -1.81923 -1.52955
upperback 0.154998 -2.4706 2.24416
thorax -4.86282 -1.1605 3.52923
lowerneck -16.0743 -2.63517 -2.05161
upperneck 22.3109 -2.86701 -1.156
head 9.74184 -1.64346 -0.433917
rclavicle -5.94366e-014 2.22639e-014
rhumerus -39.8731 -37.5369 -63.5257
rradius 16.8421
rwrist 17.3571
rhand -18.7968 23.4926
rfingers 7.12502
rthumb 7.50126 -6.35436
lclavicle -5.94366e-014 2.22639e-014
lhumerus -24.2931 1.30052 81.2254
lradius 32.636
lwrist 7.49088
lhand -31.6488 15.5712
lfingers 7.12502
lthumb -4.90959 45.4943
rfemur -25.4253 5.517 22.2284
rtibia 29.0233
rfoot -4.19937 -4.1669
rtoes 0.328264
lfemur 13.9574 -5.09011 -24.1608
ltibia 33.7796
lfoot -1.76121 -10.8442
ltoes -26.8657
627
root 0.175987 17.9129 2.0667 -2.90193 1.1936 -0.205626
lowerback 9.25444 -1.83451 -1.51799
upperback 0.0787405 -2.48639 2.30004
thorax -4.94158 -1.16571 3.58594
lowerneck -16.2885 -2.5428 -1.90628
upperneck 22.52 -2.7392 -1.28161
head 9.85135 -1.58745 -0.490826
rclavicle -4.00427e-014 2.46493e-014
rhumerus -39.8234 -36.1024 -64.3576
rradius 17.3311
rwrist 15.4001
rhand -17.9357 23.8373
rfingers 7.12502
rthumb 8.33241 -5.97833
lclavicle -4.00427e-014 2.46493e-014
lhumerus -25.1219 1.69081 81.304
lradius 32.8858
lwrist 7.20211
lhand -31.9913 16.3472
lfingers 7.12502
lthumb -5.24032 46.2624
rfemur -24.7641 5.31298 22.6414
rtibia 29.3308
rfoot -4.32922 -4.10882
rtoes 0.845842
lfemur 12.7559 -4.58926 -23.6332
ltibia 35.943
lfoot 3.22236 -11.1487
ltoes -18.1941
628
root 0.150862 17.9592 2.28123 -3.03118 1.26396 -0.429135
lowerback 9.24674 -1.85438 -1.31295
upperback 0.115014 -2.48987 2.32406
thorax -4.90661 -1.17304 3.49431
lowerneck -16.3909 -2.5326 -1.7624
upperneck 22.4873 -2.74843 -1.33359
head 9.85547 -1.58524 -0.535252
rclavicle -2.95071e-014 -7.95139e-016
rhumerus -39.8739 -35.528 -64.8
rradius 17.7055
rwrist 13.9898
rhand -16.971 24.1032
rfingers 7.12502
rthumb 9.26337 -5.67327
lclavicle -2.95071e-014 -7.95139e-016
lhumerus -25.5621 1.85078 81.3717
lradius 32.9521
lwrist 7.41357
lhand -31.6431 16.9277
lfingers 7.12502
lthumb -4.90415 46.8509
rfemur -23.9066 5.02199 23.1173
rtibia 29.4555
rfoot -5.18409 -3.92785
rtoes 4.36635
lfemur 11.5915 -4.32211 -23.0963
ltibia 38.1913
lfoot 6.10436 -11.4055
ltoes -15.0471
629
root 0.126413 17.9988 2.49071 -3.17549 1.3044 -0.729867
lowerback 9.28458 -1.79056 -0.989366
upperback 0.14874 -2.36935 2.34342
thorax -4.91294 -1.12094 3.31718
lowerneck -16.3369 -2.63847 -1.73042
upperneck 22.3814 -2.90839 -1.32732
head 9.80726 -1.65523 -0.557274
rclavicle 2.7482e-014 -3.97569e-015
rhumerus -40.1434 -35.7115 -64.675
rradius 17.8703
rwrist 14.021
rhand -17.4253 24.0433
rfingers 7.12502
rthumb 8.82496 -5.75215
lclavicle 2.7482e-014 -3.97569e-015
lhumerus -25.7723 1.78674 81.4947
lradius 32.5333
lwrist 7.76217
lhand -30.8972 15.1269
lfingers 7.12502
lthumb -4.18385 45.0655
rfemur -22.9602 4.82224 23.6724
rtibia 29.4466
rfoot -5.09972 -3.62725
rtoes 2.81298
lfemur 10.4515 -4.06212 -22.4566
ltibia 40.6053
lfoot 8.21481 -11.0215
ltoes -4.7498
630
root 0.100193 18.0112 2.69147 -3.34488 1.27931 -1.3065
lowerback 9.47116 -1.75467 -0.435563
upperback 0.0667622 -2.25252 2.46544
thorax -5.12746 -1.07112 3.1281
lowerneck -16.1129 -2.676 -1.81351
upperneck 22.5107 -2.97149 -1.21824
head 9.81449 -1.67948 -0.511799
rclavicle -8.08805e-015 5.1684e-015
rhumerus -40.4785 -35.3417 -64.6235
rradius 18.0342
rwrist 13.9761
rhand -17.9977 25.0543
rfingers 7.12502
rthumb 8.27251 -4.76372
lclavicle -8.08805e-015 5.1684e-015
lhumerus -26.1711 1.68844 81.6836
lradius 32.2009
lwrist 8.08415
lhand -30.3713 16.9507
lfingers 7.12502
lthumb -3.67604 46.8988
rfemur -22.0253 4.79994 24.5417
rtibia 29.3438
rfoot -5.59619 -3.62334
rtoes 4.17803
lfemur 9.20341 -3.61075 -21.4005
ltibia 43.2456
lfoot 10.2761 -7.93428
ltoes 19.3596
631
root 0.0736794 18.0238 2.88163 -3.45354 1.38123 -1.71724
lowerback 9.59845 -1.748 -0.111456
upperback 0.0952129 -2.20182 2.55488
thorax -5.18078 -1.05244 3.03689
lowerneck -16.4764 -2.67436 -1.83133
upperneck 22.8573 -2.99261 -1.06713
head 10.0095 -1.67359 -0.46896
rclavicle 1.44367e-014 5.56597e-015
rhumerus -40.3851 -34.9932 -64.9618
rradius 18.2236
rwrist 13.4516
rhand -18.2395 25.7213
rfingers 7.12502
rthumb 8.0392 -4.10582
lclavicle 1.44367e-014 5.56597e-015
lhumerus -26.3917 1.59329 81.9
lradius 32.1131
lwrist 8.20036
lhand -29.7082 20.3945
lfingers 7.12502
lthumb -3.03562 50.3527
rfemur -21.2123 4.66849 25.2099
rtibia 29.2408
rfoot -5.6674 -3.59464
rtoes 6.53588
lfemur 7.68272 -3.3182 -20.5583
ltibia 46.007
lfoot 12.1055 -9.84923
ltoes 18.629
632
root 0.048875 18.0527 3.0742 -3.50386 1.44417 -2.1138
lowerback 9.57899 -1.67845 0.259826
upperback 0.299493 -2.07134 2.57218
thorax -4.975 -1.00006 2.82102
lowerneck -17.1611 -2.72385 -1.65236
upperneck 22.9038 -3.14301 -0.878728
head 10.1557 -1.70322 -0.46441
rclavicle 1.00635e-014 -4.37326e-015
rhumerus -39.9447 -35.3472 -65.3552
rradius 18.2216
rwrist 13.2872
rhand -18.7297 24.9707
rfingers 7.12502
rthumb 7.56604 -4.87393
lclavicle 1.00635e-014 -4.37326e-015
lhumerus -26.2263 1.16877 82.0741
lradius 32.0032
lwrist 8.41043
lhand -29.2976 22.1622
lfingers 7.12502
lthumb -2.63911 52.1256
rfemur -20.4572 4.53965 25.8514
rtibia 29.2204
rfoot -5.56044 -3.5458
rtoes 5.89278
lfemur 6.02981 -3.14842 -19.8314
ltibia 48.7587
lfoot 14.7468 -14.6296
ltoes -4.03329
633
root 0.024297 18.0773 3.26836 -3.51366 1.41635 -2.79893
lowerback 9.60725 -1.62649 0.939676
upperback 0.297189 -1.91973 2.69902
thorax -5.01848 -0.939055 2.55157
lowerneck -16.9493 -2.7849 -1.57965
upperneck 22.4293 -3.26885 -0.811525
head 9.94556 -1.74672 -0.460689
rclavicle 9.50439e-015 -1.43125e-014
rhumerus -39.5737 -34.7791 -65.967
rradius 18.3209
rwrist 12.6421
rhand -19.3005 23.6213
rfingers 7.12502
rthumb 7.01503 -6.24244
lclavicle 9.50439e-015 -1.43125e-014
lhumerus -26.4627 0.75102 82.2763
lradius 31.9417
lwrist 8.63326
lhand -29.0066 22.5658
lfingers 7.12502
lthumb -2.35811 52.5325
rfemur -19.7352 4.47413 26.823
rtibia 29.2583
rfoot -5.74727 -3.5714
rtoes 5.05577
lfemur 4.36724 -2.89313 -18.7579
ltibia 51.3836
lfoot 16.5772 -18.5132
ltoes -16.5112
634
root 0.00220911 18.0846 3.45773 -3.61831 1.15111 -3.21875
lowerback 9.87854 -1.48832 1.28135
upperback 0.173991 -1.67998 2.80991
thorax -5.31543 -0.825509 2.45553
lowerneck -16.4393 -2.89144 -1.6643
upperneck 22.0829 -3.41917 -0.752951
head 9.73007 -1.81762 -0.43348
rclavicle -4.07509e-014 1.59028e-014
rhumerus -39.2324 -33.4951 -66.8925
rradius 18.5952
rwrist 11.351
rhand -19.7692 22.6667
rfingers 7.12502
rthumb 6.56262 -7.21164
lclavicle -4.07509e-014 1.59028e-014
lhumerus -26.9105 0.695376 82.5003
lradius 31.8646
lwrist 8.45509
lhand -29.1315 23.6813
lfingers 7.12502
lthumb -2.47869 53.6467
rfemur -18.9673 4.60687 27.5114
rtibia 29.3339
rfoot -6.22451 -3.6138
rtoes 5.61591
lfemur 2.92725 -2.32476 -18.0005
ltibia 53.8248
lfoot 17.1785 -17.6552
ltoes -5.41916
635
root -0.0172498 18.092 3.64941 -3.59804 0.911775 -3.31709
lowerback 10.0095 -1.30784 1.33081
upperback 0.12884 -1.43043 2.7743
thorax -5.44642 -0.703416 2.3601
lowerneck -16.656 -2.97042 -1.51548
upperneck 22.2855 -3.57929 -0.703789
head 9.84073 -1.87271 -0.468455
rclavicle 1.45486e-014 -1.47101e-014
rhumerus -38.6239 -32.1463 -68.2385
rradius 19.0781
rwrist 10.2255
rhand -19.8832 21.8761
rfingers 7.12502
rthumb 6.45258 -8.00559
lclavicle 1.45486e-014 -1.47101e-014
lhumerus -27.1232 0.595541 82.6166
lradius 31.3476
lwrist 8.77218
lhand -28.9452 20.0232
lfingers 7.12502
lthumb -2.29876 49.9906
rfemur -18.3483 4.67197 27.8219
rtibia 29.4481
rfoot -6.80967 -3.54739
rtoes 6.34469
lfemur 1.34924 -1.74281 -17.6376
ltibia 56.0864
lfoot 16.6184 -17.2299
ltoes 0.195134
